<svg xmlns="http://www.w3.org/2000/svg" viewBox="0 0 53.4 50"><path d="M26.7 0c-.7 0-1.5 0-2.2.1-1.2.1-2.4.3-3.5.6C15.7 1.9 11 4.9 7.6 9l4.6 2.4c2.1-2.3 4.8-4 7.7-5.1C22 5.4 24.3 5 26.7 5c.8 0 1.6 0 2.4.1 9.8 1.2 17.4 9.4 17.6 19.4l4.6 5c.3-1.5.4-3 .4-4.6C51.7 11.2 40.5 0 26.7 0zm14.5 38.7c-2.1 2.3-4.8 4-7.7 5.1-2.1.8-4.4 1.2-6.8 1.2-.8 0-1.6-.1-2.4-.2-9.8-1.2-17.4-9.4-17.6-19.4l-4.6-5c-.3 1.5-.4 3-.4 4.6 0 13.8 11.2 25 25 25 .7 0 1.5 0 2.2-.1 1.2-.1 2.4-.3 3.6-.6 5.3-1.2 10-4.2 13.4-8.3l-4.7-2.3z"/><path d="M53.4 39.4l-4.7-2.5-4.5-2.3-12.7-6.5-2.8 14.2L7.6 19l-3.8-4.1L0 10.7l4.7 2.4 4.4 2.3L21.8 22l2.8-14.3L45.8 31l3.7 4.2"/></svg>