<?xml version="1.0" encoding="utf-8"?>
<!-- Generator: Adobe Illustrator 19.0.1, SVG Export Plug-In . SVG Version: 6.00 Build 0)  -->
<!DOCTYPE svg PUBLIC "-//W3C//DTD SVG 1.1//EN" "http://www.w3.org/Graphics/SVG/1.1/DTD/svg11.dtd">
<svg version="1.1" id="Capa_1" xmlns="http://www.w3.org/2000/svg" xmlns:xlink="http://www.w3.org/1999/xlink" x="0px" y="0px"
	 viewBox="0 0 53.4 50" enable-background="new 0 0 53.4 50" xml:space="preserve">
<g id="thunderbolt">
	<path d="M26.7,0c-0.7,0-1.5,0-2.2,0.1c-1.2,0.1-2.4,0.3-3.5,0.6c-5.3,1.2-10,4.2-13.4,8.3l4.6,2.4c2.1-2.3,4.8-4,7.7-5.1
		C22,5.4,24.3,5,26.7,5c0.8,0,1.6,0,2.4,0.1c9.8,1.2,17.4,9.4,17.6,19.4l4.6,5c0.3-1.5,0.4-3,0.4-4.6C51.7,11.2,40.5,0,26.7,0z
		 M41.2,38.7c-2.1,2.3-4.8,4-7.7,5.1c-2.1,0.8-4.4,1.2-6.8,1.2c-0.8,0-1.6-0.1-2.4-0.2c-9.8-1.2-17.4-9.4-17.6-19.4l-4.6-5
		c-0.3,1.5-0.4,3-0.4,4.6c0,13.8,11.2,25,25,25c0.7,0,1.5,0,2.2-0.1c1.2-0.1,2.4-0.3,3.6-0.6c5.3-1.2,10-4.2,13.4-8.3L41.2,38.7z"/>
	<g>
		<polygon points="53.4,39.4 48.7,36.9 44.2,34.6 31.5,28.1 28.7,42.3 7.6,19 3.8,14.9 0,10.7 4.7,13.1 9.1,15.4 21.8,22 24.6,7.7 
			45.8,31 49.5,35.2 		"/>
	</g>
</g>
</svg>
