<svg xmlns="http://www.w3.org/2000/svg" viewBox="156 -109.4 502.8 408.4"><g fill="#1D1D1B"><path d="M369.7 125.6l23.3 8.6.4-.5 1.1-1.3 24.2-29.8 4.9-6 12.9-16-30.1-17-10.2 14.7-4.4 6.4-21.9 31.7-4.4 6.4-.5.7-.2.2 4.9 1.9zM342.4 107.7l-11.6 2.6-8.2-11.4-2.7 10.5 37.4 11.7 1.7-2.5 4.4-6.4 7.7-11.2-1.3.3-17 3.9M417.5 147.2l24.2-20.6 5.1-5 5.6-5.5 3.5-3.4-19.7-18.3-5.7 6.8-5 6-24.5 29.5-1.4 1.6 14.1 12.2M363.4 66.1l9.7 3.3v28.7l12.2-17.7 4.3-6.3 16.5-23.9-33.8-20.9-15.6 23.2-4.3 6.4-1.9 2.7M332.3 12.4l-11.4 17-4.3 6.4-7.8 11.5 34 11.7 3-4.4 4.3-6.4 12.7-18.7"/><path d="M406.6 273.9v-58.6l21.5-25.4 4.8-23.7-14.7-9.4-4.5 3.8-21.5-18.5-.3-.2-6-3.7-25.5-8-2.8-.9h-.1l-51.2-16.1-9.4-2.9 11.9-2.8 3.7-.9 4.1-16 .5-2 1.5-5.9.5-1.8.9 1.2 2 2.8 1.5 2 2.3 3.2 2.5 3.6 5.6 7.9 9.8-2.3 21.5-5V74.9l-19.4-6.7-.2-.1-7.6-2.6-34-11.7-9 13-4.4 6.3-28.3 40.9 60.3 92.5-12.9 66.9c-66.5-20.8-115-83.2-115-156.7 0-33.5 10.1-64.6 27.3-90.6.3-.5.6-.9.9-1.3 13.9-20.5 32.3-37.7 53.7-50.1l2.3-2.2-6.2-3.9-10.1-6.5C211-5.7 176.7 51.6 176.7 116.7 176.7 217.2 258.5 299 359 299c82.2 0 151.9-54.7 174.5-129.7l-16.1-9.2c-15 54.3-57.1 97.5-110.8 113.8zM321.5-55.7c2.5 1.2 5.1 2.5 7.7 3.8l10.7 5.4c6.2-.7 12.6-1.1 19-1.1 88 0 160 69.5 164 156.5 2.7 1.8 5.5 3.7 8.3 5.7l9.9 6.8c0-1.6.1-3.1.1-4.7 0-100.5-81.8-182.3-182.3-182.3-15.8 0-31.1 2-45.7 5.8l7.2 3.5 1.1.6z"/></g><path fill="#1D1D1B" d="M654.7 266.2c-5.3-4-10.4-7.8-15.2-11.4l-15.3-11.3-15.4-11.2-15.5-11c-.9-.6-1.8-1.3-2.7-1.9-1.7-1.2-3.3-2.4-5-3.5l-15.1-10.6 9.9-16.4c2.7-4.4 5.4-8.9 8-13.4l5.4-9.1-28.8-20.2c-1.1-.8-2.3-1.6-3.4-2.4l-6-4.2-28.5-19.6c-4.1-2.8-8.1-5.6-12.2-8.3-2.3-1.5-4.5-3.1-6.8-4.6l-15.3-10.4-19.7 41.9-9.9-6.8-9.9-6.7-5.5 5.4-1 1-3.8 3.1-4.8 4.1-13.9 11.9 10.2 6.5 3.5 2.2 3.5 2.2 1.5 1 46 28.8 18.5-46.7 32.9 18.8c2.2 1.2 4.3 2.4 6.5 3.6 1.2.7 2.4 1.3 3.6 2l10.9 6.1-16.9 37.4 32.8 16.9c1.8.9 3.6 1.8 5.4 2.8l3 1.5 17 8.5 25.6 12.6 8.6 4.1c5.5 2.7 11.1 5.3 17.2 8.2l4.6 2.2-4-3.1zM192-68.3c2.6 2.9 5.2 5.8 7.9 8.7l18.8 20.8 4.8-11.5 3.9-9.6 3.2-7.8 13.1 8.5c3.9 2.5 7.5 4.9 11 7.1L276.9-38l14.8 9.2-13.5 12.5L249.9 10 234 25l18.8 13c8.4 5.8 17.1 11.8 26.9 18.4l9.2 6.2 10.5-15.2.2-.2 10.5-15.5-10-6.4c-.9-.6-1.8-1.1-2.7-1.7l-6.4-4 11.1-11.4 13.4-13.9 28.6-29.9-18.4-9.3c-2.9-1.5-5.8-2.9-8.7-4.3l-26.6-13.2-23.7-11.3c-3.8-1.8-7.6-3.7-11.8-5.6L243-84.9c-1.3-.6-2.7-1.2-4-1.8-2.6-1.2-5.3-2.5-7.9-3.6l-11.4-5.1-7.7 30-4.7-3.8c-2.7-2.2-5.5-4.4-8.3-6.6l-11.4-9.1c-2.7-2.2-5.5-4.3-8.2-6.5l-3.2-2.5-3.9-3c-2.5-2-5-3.9-7.6-5.9l-8.7-6.6 7.1 8.3c2.1 2.4 4.2 4.9 6.3 7.3 1.1 1.2 2.2 2.5 3.2 3.7l2.7 3.1 6.9 7.8 9.8 10.9z"/></svg>