<svg xmlns="http://www.w3.org/2000/svg" viewBox="312 -218.8 657.2 680.4"><linearGradient id="a" gradientUnits="userSpaceOnUse" x1="842.01" y1="334.409" x2="388.438" y2="-119.162"><stop offset=".159" stop-opacity="0"/><stop offset="1" stop-color="#1d1d1b"/></linearGradient><path opacity=".3" fill="url(#a)" d="M969.2 207.2L654.6-107.4c-33.1-39.5-82.9-64.7-138.5-64.7-99.8 0-180.6 80.9-180.6 180.6 0 55.6 25.1 105.3 64.7 138.5l314.6 314.6 254.4-254.4z"/><path fill="#FFF" d="M810.7 156.8c-5.3-4-10.4-7.8-15.2-11.4l-15.3-11.3-15.4-11.2-15.5-11c-.9-.6-1.8-1.3-2.7-1.9-1.7-1.2-3.3-2.4-5-3.5l-15.1-10.6 9.9-16.4c2.7-4.4 5.4-8.9 8-13.4l5.4-9.1L721 36.8c-1.1-.8-2.3-1.6-3.4-2.4l-6-4.2-28.5-19.6C679 7.8 675 5 670.9 2.3c-2.3-1.5-4.5-3.1-6.8-4.6l-15.3-10.4-19.7 41.9-9.9-6.8-9.9-6.7-5.5 5.4-1 1-3.8 3.1-4.8 4.1-13.9 11.9 10.2 6.5 3.5 2.2 3.5 2.2 1.5 1 46 28.8 18.5-46.7L696.4 54c2.2 1.2 4.3 2.4 6.5 3.6 1.2.7 2.4 1.3 3.6 2l10.9 6.1-16.9 37.4 32.8 16.9c1.8.9 3.6 1.8 5.4 2.8l3 1.5 17 8.5 25.6 12.6 8.6 4.1c5.5 2.7 11.1 5.3 17.2 8.2l4.6 2.2-4-3.1zM348-177.7c2.6 2.9 5.2 5.8 7.9 8.7l18.8 20.8 4.8-11.5 3.9-9.6 3.2-7.8 13.1 8.5c3.9 2.5 7.5 4.9 11 7.1l22.2 14.1 14.8 9.2-13.5 12.5-28.3 26.3-15.9 15 18.8 13c8.4 5.8 17.1 11.8 26.9 18.4l9.2 6.2L455.4-62l.2-.2 10.5-15.5-10-6.4c-.9-.6-1.8-1.1-2.7-1.7l-6.4-4 11.1-11.4 13.4-13.9 28.6-29.9-18.4-9.3c-2.9-1.5-5.8-2.9-8.7-4.3l-26.6-13.2-23.7-11.3c-3.8-1.8-7.6-3.7-11.8-5.6l-11.9-5.6c-1.3-.6-2.7-1.2-4-1.8-2.6-1.2-5.3-2.5-7.9-3.6l-11.4-5.1-7.7 30-4.7-3.8c-2.7-2.2-5.5-4.4-8.3-6.6l-11.4-9.1c-2.7-2.2-5.5-4.3-8.2-6.5l-3.2-2.5-3.9-3c-2.5-2-5-3.9-7.6-5.9l-8.7-6.6 7.1 8.3c2.1 2.4 4.2 4.9 6.3 7.3 1.1 1.2 2.2 2.5 3.2 3.7l2.7 3.1 6.9 7.8 9.8 10.9z"/><g fill="#FFF"><path d="M525.7 16.2l23.3 8.6.4-.5 1.1-1.3 24.2-29.8 4.9-6 12.9-16-30.1-17-10.2 14.7-4.4 6.4L525.9 7l-4.4 6.4-.5.7-.2.2 4.9 1.9zM498.4-1.7L486.8.9l-8.2-11.4L475.9 0l37.4 11.7 1.7-2.5 4.4-6.4 7.7-11.2-1.3.3-17 3.9zM573.5 37.8l24.2-20.6 5.1-5 5.6-5.5 3.5-3.4L592.2-15l-5.7 6.8-5 6L557 27.3l-1.4 1.6 14.1 12.2zM519.4-43.3l9.7 3.3v28.7L541.3-29l4.3-6.3 16.5-23.9-33.8-20.9-15.6 23.2-4.3 6.4-1.9 2.7zM488.3-97l-11.4 17-4.3 6.4-7.8 11.5 34 11.7 3-4.4 4.3-6.4 12.7-18.7z"/><path d="M562.6 164.5v-58.6l21.5-25.4 4.8-23.7-14.7-9.4-4.5 3.8-21.5-18.5-.3-.2-6-3.7-25.5-8-2.8-.9h-.1L462.3 3.8 452.9.9l11.9-2.8 3.7-.9 4.1-16 .5-2 1.5-5.9.5-1.8.9 1.2 2 2.8 1.5 2 2.3 3.2 2.5 3.6 5.6 7.9 9.8-2.3 21.5-5v-19.4l-19.4-6.7-.2-.1-7.6-2.6-34-11.7-9 13-4.4 6.3-28.3 40.9 60.3 92.5-12.9 66.9c-66.5-20.8-115-83.2-115-156.7 0-33.5 10.1-64.6 27.3-90.6.3-.5.6-.9.9-1.3 13.9-20.5 32.3-37.7 53.7-50.1l2.3-2.2-6.2-3.9-10.1-6.5C367-115.1 332.7-57.8 332.7 7.3c0 100.5 81.8 182.3 182.3 182.3 82.2 0 151.9-54.7 174.5-129.7l-16.1-9.2c-15 54.3-57.1 97.5-110.8 113.8zM477.5-165.1c2.5 1.2 5.1 2.5 7.7 3.8l10.7 5.4c6.2-.7 12.6-1.1 19-1.1 88 0 160 69.5 164 156.5 2.7 1.8 5.5 3.7 8.3 5.7l9.9 6.8c0-1.6.1-3.1.1-4.7 0-100.5-81.8-182.3-182.3-182.3-15.8 0-31.1 2-45.7 5.8l7.2 3.5 1.1.6z"/></g></svg>